<?xml version="1.0" encoding="utf-8"?>
<!-- Generator: Adobe Illustrator 26.3.1, SVG Export Plug-In . SVG Version: 6.00 Build 0)  -->
<svg version="1.1" id="katman_1" xmlns="http://www.w3.org/2000/svg" xmlns:xlink="http://www.w3.org/1999/xlink" x="0px" y="0px"
	 width="24px" height="24px" viewBox="0 0 24 24" enable-background="new 0 0 24 24" xml:space="preserve">
<path fill-rule="evenodd" clip-rule="evenodd" fill="#DAE2ED" d="M4.457,2.864C4.348,2.386,4.631,1.906,5.102,1.771
	C5.575,1.638,6.07,1.893,6.236,2.355L7.643,6.26L5.362,6.913L4.457,2.864z"/>
<path fill-rule="evenodd" clip-rule="evenodd" fill="#DAE2ED" d="M12.198,2.027c0.019-0.49,0.417-0.88,0.907-0.889
	c0.491-0.006,0.903,0.369,0.943,0.858l0.347,4.136l-2.372,0.039L12.198,2.027z"/>
<path fill="#9CB8FF" d="M16.482,15.636H15.26c-0.703-0.01-1.373-0.297-1.864-0.801s-0.762-1.18-0.754-1.883v-1.251
	c-0.002-0.28,0.107-0.55,0.303-0.75s0.464-0.315,0.744-0.319h5.738V9.135H9.246c-0.924,2.08-1.869,4.247-2.182,5.091
	c-0.201,0.495-0.546,0.919-0.991,1.216c-0.445,0.297-0.969,0.453-1.503,0.449v0.895c0.402,0.402,0.879,0.721,1.405,0.938
	s1.089,0.328,1.657,0.327h9.156c0.701,0,1.373-0.278,1.869-0.773s0.776-1.166,0.778-1.867v-0.189
	c-0.413,0.269-0.896,0.413-1.389,0.415L16.482,15.636z M10.351,13.593c-0.18,0.001-0.357-0.051-0.507-0.151
	c-0.15-0.1-0.267-0.242-0.335-0.409c-0.068-0.167-0.085-0.35-0.048-0.526c0.037-0.176,0.126-0.338,0.256-0.463
	s0.294-0.209,0.471-0.24c0.177-0.031,0.36-0.008,0.525,0.065c0.164,0.074,0.303,0.195,0.398,0.348
	c0.095,0.153,0.142,0.331,0.134,0.511c-0.009,0.231-0.107,0.451-0.274,0.612C10.805,13.5,10.583,13.591,10.351,13.593z"/>
<path fill="#CBDAF7" d="M19.617,10.633h-5.92c-0.139,0.001-0.277,0.029-0.406,0.084c-0.128,0.054-0.245,0.133-0.343,0.233
	c-0.098,0.099-0.175,0.217-0.228,0.346c-0.052,0.129-0.079,0.267-0.078,0.407v1.251c-0.008,0.703,0.264,1.38,0.754,1.883
	s1.161,0.791,1.864,0.801h2.785c0.493-0.001,0.976-0.145,1.389-0.415l0.073-0.044c0.353-0.253,0.64-0.588,0.838-0.975
	s0.299-0.816,0.297-1.251v-1.251c0.004-0.277-0.101-0.545-0.293-0.745S19.894,10.64,19.617,10.633z M17.006,14.465H15.85
	c-0.063,0.008-0.126,0.003-0.186-0.016s-0.116-0.05-0.163-0.091c-0.047-0.042-0.085-0.093-0.111-0.15
	c-0.026-0.057-0.04-0.12-0.04-0.183c0-0.063,0.014-0.125,0.04-0.183c0.026-0.057,0.064-0.109,0.111-0.15
	c0.047-0.042,0.103-0.073,0.163-0.091s0.124-0.024,0.186-0.016h1.156c0.063-0.008,0.126-0.003,0.186,0.016s0.116,0.05,0.163,0.091
	c0.047,0.042,0.085,0.093,0.111,0.15c0.026,0.057,0.039,0.12,0.039,0.183c0,0.063-0.014,0.125-0.039,0.183
	c-0.026,0.057-0.064,0.109-0.111,0.15c-0.047,0.042-0.103,0.073-0.163,0.091S17.069,14.474,17.006,14.465z M19.079,14.465h-0.444
	c-0.107-0.014-0.205-0.066-0.276-0.147s-0.111-0.185-0.111-0.293c0-0.108,0.039-0.212,0.111-0.293s0.17-0.133,0.276-0.147h0.444
	c0.062-0.008,0.126-0.003,0.186,0.016s0.116,0.05,0.163,0.091c0.047,0.042,0.085,0.093,0.111,0.15
	c0.026,0.057,0.039,0.12,0.039,0.183c0,0.063-0.014,0.125-0.039,0.183c-0.026,0.057-0.064,0.109-0.111,0.15
	c-0.047,0.042-0.103,0.073-0.163,0.091S19.141,14.473,19.079,14.465z"/>
<path fill="#9CB8FF" d="M17.006,13.585H15.85c-0.062-0.008-0.126-0.003-0.186,0.016s-0.116,0.05-0.163,0.091
	c-0.047,0.042-0.085,0.093-0.111,0.15c-0.026,0.057-0.039,0.12-0.039,0.183c0,0.063,0.013,0.125,0.039,0.183
	c0.026,0.057,0.064,0.109,0.111,0.15c0.047,0.042,0.103,0.073,0.163,0.091s0.124,0.024,0.186,0.016h1.156
	c0.062,0.008,0.126,0.003,0.186-0.016s0.116-0.05,0.163-0.091c0.047-0.042,0.085-0.093,0.111-0.15
	c0.026-0.057,0.039-0.12,0.039-0.183c0-0.063-0.014-0.125-0.039-0.183c-0.026-0.057-0.064-0.109-0.111-0.15
	c-0.047-0.042-0.103-0.073-0.163-0.091S17.069,13.577,17.006,13.585z M19.064,13.585h-0.444c-0.107,0.014-0.205,0.066-0.277,0.147
	c-0.071,0.081-0.111,0.185-0.111,0.293c0,0.108,0.039,0.212,0.111,0.293c0.071,0.081,0.17,0.133,0.277,0.147h0.444
	c0.063,0.008,0.126,0.003,0.186-0.016s0.116-0.05,0.163-0.091c0.047-0.042,0.085-0.093,0.111-0.15
	c0.026-0.057,0.039-0.12,0.039-0.183c0-0.063-0.014-0.125-0.039-0.183c-0.026-0.057-0.064-0.109-0.111-0.15
	c-0.047-0.042-0.103-0.073-0.163-0.091S19.127,13.577,19.064,13.585z"/>
<path fill="#D0D9EA" d="M2.628,15.171c-0.11-0.05-0.216-0.106-0.32-0.167v4.204L3.442,20l1.127-0.793v-3.316
	C3.853,15.916,3.155,15.658,2.628,15.171z"/>
<path fill="#D0D9EA" d="M6.315,13.745c-0.137,0.345-0.344,0.658-0.607,0.92c-0.263,0.262-0.577,0.468-0.922,0.604
	c-0.345,0.136-0.715,0.2-1.086,0.188c-0.371-0.012-0.736-0.1-1.072-0.258c0.526,0.489,1.224,0.751,1.942,0.727
	c0.537-0.011,1.058-0.183,1.495-0.495s0.77-0.747,0.956-1.251c0.327-0.829,1.273-2.996,2.182-5.091H8.279
	C8.279,9.091,7.021,11.949,6.315,13.745z"/>
<path fill="#EBEFF7" d="M11.53,4l0.618,0.051L11.53,4z"/>
<path fill="#FFFFFF" d="M16.897,7.113c0.876,0.022,1.748,0.11,2.611,0.262c-0.567-0.676-2.778-2.909-7.353-3.309
	C15.464,4.858,16.686,6.742,16.897,7.113z M6.315,13.746c0.705-1.796,1.964-4.611,1.964-4.611s2.24-1.695,6.851-1.985
	c-1.607-2.182-4.247-2.909-5.876-3.084c-5.622,0.604-8.247,4.873-8.247,8.276c-0.033,0.519,0.07,1.037,0.298,1.504
	s0.574,0.866,1.004,1.158c0.104,0.061,0.21,0.117,0.32,0.167c0.334,0.159,0.697,0.248,1.067,0.262
	c0.37,0.014,0.739-0.048,1.084-0.181c0.345-0.134,0.659-0.336,0.924-0.595C5.966,14.398,6.175,14.088,6.315,13.746z M1.566,11.68
	c0.025-0.543,0.262-1.055,0.66-1.425c0.399-0.37,0.927-0.569,1.47-0.553c0.532,0.115,0.998,0.436,1.296,0.892
	s0.405,1.011,0.297,1.545c-0.025,0.538-0.258,1.046-0.65,1.415c-0.392,0.369-0.913,0.571-1.452,0.563
	c-0.267-0.053-0.52-0.158-0.746-0.309c-0.226-0.151-0.42-0.346-0.571-0.572c-0.151-0.226-0.255-0.48-0.308-0.747
	C1.511,12.221,1.512,11.947,1.566,11.68z"/>
<path fill="#7687B2" d="M16.155,7.105c-0.356,0-0.727,0-1.033,0.044C10.511,7.44,8.279,9.135,8.279,9.135h15.607
	c-1.29-0.932-2.788-1.537-4.364-1.76c-0.863-0.152-1.735-0.239-2.611-0.262L16.155,7.105z"/>
<path fill="#7687B2" d="M3.188,14.116c0.545,0.018,1.075-0.18,1.475-0.55c0.4-0.37,0.638-0.883,0.663-1.428
	c0.107-0.539-0.005-1.099-0.31-1.556s-0.78-0.774-1.319-0.881c-0.544-0.016-1.072,0.183-1.47,0.553
	c-0.399,0.37-0.636,0.882-0.66,1.425c-0.054,0.267-0.055,0.541-0.003,0.808c0.052,0.267,0.157,0.521,0.308,0.747
	c0.151,0.226,0.345,0.421,0.571,0.572C2.668,13.958,2.921,14.063,3.188,14.116z M1.908,11.76c0.007-0.182,0.051-0.362,0.129-0.527
	s0.187-0.314,0.323-0.436c0.135-0.123,0.294-0.217,0.466-0.278c0.172-0.061,0.355-0.086,0.537-0.075
	c0.354,0.077,0.663,0.29,0.861,0.594c0.197,0.304,0.267,0.673,0.194,1.028c-0.015,0.361-0.173,0.702-0.439,0.948
	c-0.266,0.245-0.618,0.375-0.98,0.362c-0.358-0.07-0.674-0.28-0.878-0.582C1.916,12.49,1.84,12.119,1.908,11.76z"/>
<path fill="#D0D9EA" d="M2.962,13.375c0.361,0.014,0.714-0.116,0.98-0.362c0.266-0.245,0.424-0.586,0.439-0.947
	c0.073-0.355,0.004-0.724-0.194-1.028c-0.197-0.304-0.507-0.517-0.861-0.594c-0.362-0.012-0.714,0.12-0.98,0.366
	s-0.423,0.588-0.438,0.95c-0.069,0.354,0.002,0.72,0.199,1.022C2.304,13.083,2.611,13.296,2.962,13.375z M15.122,7.156h1.753
	c-0.218-0.378-1.455-2.255-4.734-3.047L11.53,4h-0.916C10.161,4,9.71,4.027,9.261,4.08C10.882,4.276,13.515,4.945,15.122,7.156z"/>
<circle fill="#040405" cx="10.28" cy="12.75" r="1"/>
</svg>
